<svg width="30" height="30" viewBox="0 0 30 30" fill="none" xmlns="http://www.w3.org/2000/svg">
<path fill-rule="evenodd" clip-rule="evenodd" d="M19.4245 6.59212C17.1464 5.55151 14.5713 5.36585 12.1683 6.06874C9.76519 6.77164 7.69305 8.31671 6.33037 10.4236C4.96762 12.5306 4.40552 15.0587 4.74723 17.547C4.99466 19.3487 5.70391 21.042 6.78992 22.4692L14.9713 15.1165L23.2435 22.6668C24.3696 21.2581 25.1211 19.5715 25.4079 17.7653L30 18.4947C29.4315 22.0738 27.5983 25.3302 24.8332 27.6696L23.2734 28.9893L14.9471 21.3896L6.66586 28.8321L5.11345 27.4615C2.39822 25.0642 0.633908 21.77 0.140848 18.1796C-0.352207 14.5893 0.458592 10.9406 2.42618 7.89846C4.39385 4.85619 7.38774 2.62261 10.863 1.6061C14.3383 0.589576 18.0625 0.858232 21.3564 2.36285C24.6501 3.86742 27.2936 6.50728 28.8059 9.80013L24.5807 11.7407C23.533 9.45961 21.7027 7.63278 19.4245 6.59212Z" fill="#89898B"/>
</svg>
